<mxfile host="app.diagrams.net" modified="2021-04-03T18:08:47.192Z" agent="5.0 (Windows NT 10.0; Win64; x64) AppleWebKit/537.36 (KHTML, like Gecko) Chrome/89.0.4389.90 Safari/537.36 Edg/89.0.774.63" etag="Bqz9w7eTEe_gutMFE7zq" version="14.5.3" type="github">
  <diagram id="R2lEEEUBdFMjLlhIrx00" name="Page-1">
    <mxGraphModel dx="2283" dy="1789" grid="1" gridSize="10" guides="1" tooltips="1" connect="1" arrows="1" fold="1" page="1" pageScale="1" pageWidth="850" pageHeight="1100" math="0" shadow="0" extFonts="Permanent Marker^https://fonts.googleapis.com/css?family=Permanent+Marker">
      <root>
        <mxCell id="0" />
        <mxCell id="1" parent="0" />
        <mxCell id="9h0e1bbw9ytNqN5iiVFv-2" value="User" style="shape=table;startSize=30;container=1;collapsible=1;childLayout=tableLayout;fixedRows=1;rowLines=0;fontStyle=1;align=center;resizeLast=1;" vertex="1" parent="1">
          <mxGeometry x="330" y="130" width="180" height="290" as="geometry" />
        </mxCell>
        <mxCell id="9h0e1bbw9ytNqN5iiVFv-3" value="" style="shape=partialRectangle;collapsible=0;dropTarget=0;pointerEvents=0;fillColor=none;top=0;left=0;bottom=1;right=0;points=[[0,0.5],[1,0.5]];portConstraint=eastwest;" vertex="1" parent="9h0e1bbw9ytNqN5iiVFv-2">
          <mxGeometry y="30" width="180" height="30" as="geometry" />
        </mxCell>
        <mxCell id="9h0e1bbw9ytNqN5iiVFv-4" value="PK" style="shape=partialRectangle;connectable=0;fillColor=none;top=0;left=0;bottom=0;right=0;fontStyle=1;overflow=hidden;" vertex="1" parent="9h0e1bbw9ytNqN5iiVFv-3">
          <mxGeometry width="30" height="30" as="geometry" />
        </mxCell>
        <mxCell id="9h0e1bbw9ytNqN5iiVFv-5" value="id_user" style="shape=partialRectangle;connectable=0;fillColor=none;top=0;left=0;bottom=0;right=0;align=left;spacingLeft=6;fontStyle=5;overflow=hidden;" vertex="1" parent="9h0e1bbw9ytNqN5iiVFv-3">
          <mxGeometry x="30" width="150" height="30" as="geometry" />
        </mxCell>
        <mxCell id="9h0e1bbw9ytNqN5iiVFv-6" value="" style="shape=partialRectangle;collapsible=0;dropTarget=0;pointerEvents=0;fillColor=none;top=0;left=0;bottom=0;right=0;points=[[0,0.5],[1,0.5]];portConstraint=eastwest;" vertex="1" parent="9h0e1bbw9ytNqN5iiVFv-2">
          <mxGeometry y="60" width="180" height="30" as="geometry" />
        </mxCell>
        <mxCell id="9h0e1bbw9ytNqN5iiVFv-7" value="" style="shape=partialRectangle;connectable=0;fillColor=none;top=0;left=0;bottom=0;right=0;editable=1;overflow=hidden;" vertex="1" parent="9h0e1bbw9ytNqN5iiVFv-6">
          <mxGeometry width="30" height="30" as="geometry" />
        </mxCell>
        <mxCell id="9h0e1bbw9ytNqN5iiVFv-8" value="nama_user" style="shape=partialRectangle;connectable=0;fillColor=none;top=0;left=0;bottom=0;right=0;align=left;spacingLeft=6;overflow=hidden;" vertex="1" parent="9h0e1bbw9ytNqN5iiVFv-6">
          <mxGeometry x="30" width="150" height="30" as="geometry" />
        </mxCell>
        <mxCell id="9h0e1bbw9ytNqN5iiVFv-9" value="" style="shape=partialRectangle;collapsible=0;dropTarget=0;pointerEvents=0;fillColor=none;top=0;left=0;bottom=0;right=0;points=[[0,0.5],[1,0.5]];portConstraint=eastwest;" vertex="1" parent="9h0e1bbw9ytNqN5iiVFv-2">
          <mxGeometry y="90" width="180" height="30" as="geometry" />
        </mxCell>
        <mxCell id="9h0e1bbw9ytNqN5iiVFv-10" value="" style="shape=partialRectangle;connectable=0;fillColor=none;top=0;left=0;bottom=0;right=0;editable=1;overflow=hidden;" vertex="1" parent="9h0e1bbw9ytNqN5iiVFv-9">
          <mxGeometry width="30" height="30" as="geometry" />
        </mxCell>
        <mxCell id="9h0e1bbw9ytNqN5iiVFv-11" value="email" style="shape=partialRectangle;connectable=0;fillColor=none;top=0;left=0;bottom=0;right=0;align=left;spacingLeft=6;overflow=hidden;" vertex="1" parent="9h0e1bbw9ytNqN5iiVFv-9">
          <mxGeometry x="30" width="150" height="30" as="geometry" />
        </mxCell>
        <mxCell id="9h0e1bbw9ytNqN5iiVFv-12" value="" style="shape=partialRectangle;collapsible=0;dropTarget=0;pointerEvents=0;fillColor=none;top=0;left=0;bottom=0;right=0;points=[[0,0.5],[1,0.5]];portConstraint=eastwest;" vertex="1" parent="9h0e1bbw9ytNqN5iiVFv-2">
          <mxGeometry y="120" width="180" height="30" as="geometry" />
        </mxCell>
        <mxCell id="9h0e1bbw9ytNqN5iiVFv-13" value="" style="shape=partialRectangle;connectable=0;fillColor=none;top=0;left=0;bottom=0;right=0;editable=1;overflow=hidden;" vertex="1" parent="9h0e1bbw9ytNqN5iiVFv-12">
          <mxGeometry width="30" height="30" as="geometry" />
        </mxCell>
        <mxCell id="9h0e1bbw9ytNqN5iiVFv-14" value="password" style="shape=partialRectangle;connectable=0;fillColor=none;top=0;left=0;bottom=0;right=0;align=left;spacingLeft=6;overflow=hidden;" vertex="1" parent="9h0e1bbw9ytNqN5iiVFv-12">
          <mxGeometry x="30" width="150" height="30" as="geometry" />
        </mxCell>
        <mxCell id="9h0e1bbw9ytNqN5iiVFv-45" value="" style="shape=partialRectangle;collapsible=0;dropTarget=0;pointerEvents=0;fillColor=none;top=0;left=0;bottom=0;right=0;points=[[0,0.5],[1,0.5]];portConstraint=eastwest;" vertex="1" parent="9h0e1bbw9ytNqN5iiVFv-2">
          <mxGeometry y="150" width="180" height="30" as="geometry" />
        </mxCell>
        <mxCell id="9h0e1bbw9ytNqN5iiVFv-46" value="FK" style="shape=partialRectangle;connectable=0;fillColor=none;top=0;left=0;bottom=0;right=0;editable=1;overflow=hidden;" vertex="1" parent="9h0e1bbw9ytNqN5iiVFv-45">
          <mxGeometry width="30" height="30" as="geometry" />
        </mxCell>
        <mxCell id="9h0e1bbw9ytNqN5iiVFv-47" value="id_role" style="shape=partialRectangle;connectable=0;fillColor=none;top=0;left=0;bottom=0;right=0;align=left;spacingLeft=6;overflow=hidden;" vertex="1" parent="9h0e1bbw9ytNqN5iiVFv-45">
          <mxGeometry x="30" width="150" height="30" as="geometry" />
        </mxCell>
        <mxCell id="9h0e1bbw9ytNqN5iiVFv-64" value="" style="shape=partialRectangle;collapsible=0;dropTarget=0;pointerEvents=0;fillColor=none;top=0;left=0;bottom=0;right=0;points=[[0,0.5],[1,0.5]];portConstraint=eastwest;" vertex="1" parent="9h0e1bbw9ytNqN5iiVFv-2">
          <mxGeometry y="180" width="180" height="30" as="geometry" />
        </mxCell>
        <mxCell id="9h0e1bbw9ytNqN5iiVFv-65" value="" style="shape=partialRectangle;connectable=0;fillColor=none;top=0;left=0;bottom=0;right=0;editable=1;overflow=hidden;" vertex="1" parent="9h0e1bbw9ytNqN5iiVFv-64">
          <mxGeometry width="30" height="30" as="geometry" />
        </mxCell>
        <mxCell id="9h0e1bbw9ytNqN5iiVFv-66" value="ttl" style="shape=partialRectangle;connectable=0;fillColor=none;top=0;left=0;bottom=0;right=0;align=left;spacingLeft=6;overflow=hidden;" vertex="1" parent="9h0e1bbw9ytNqN5iiVFv-64">
          <mxGeometry x="30" width="150" height="30" as="geometry" />
        </mxCell>
        <mxCell id="9h0e1bbw9ytNqN5iiVFv-67" value="" style="shape=partialRectangle;collapsible=0;dropTarget=0;pointerEvents=0;fillColor=none;top=0;left=0;bottom=0;right=0;points=[[0,0.5],[1,0.5]];portConstraint=eastwest;" vertex="1" parent="9h0e1bbw9ytNqN5iiVFv-2">
          <mxGeometry y="210" width="180" height="30" as="geometry" />
        </mxCell>
        <mxCell id="9h0e1bbw9ytNqN5iiVFv-68" value="" style="shape=partialRectangle;connectable=0;fillColor=none;top=0;left=0;bottom=0;right=0;editable=1;overflow=hidden;" vertex="1" parent="9h0e1bbw9ytNqN5iiVFv-67">
          <mxGeometry width="30" height="30" as="geometry" />
        </mxCell>
        <mxCell id="9h0e1bbw9ytNqN5iiVFv-69" value="alamat" style="shape=partialRectangle;connectable=0;fillColor=none;top=0;left=0;bottom=0;right=0;align=left;spacingLeft=6;overflow=hidden;" vertex="1" parent="9h0e1bbw9ytNqN5iiVFv-67">
          <mxGeometry x="30" width="150" height="30" as="geometry" />
        </mxCell>
        <mxCell id="9h0e1bbw9ytNqN5iiVFv-70" value="" style="shape=partialRectangle;collapsible=0;dropTarget=0;pointerEvents=0;fillColor=none;top=0;left=0;bottom=0;right=0;points=[[0,0.5],[1,0.5]];portConstraint=eastwest;" vertex="1" parent="9h0e1bbw9ytNqN5iiVFv-2">
          <mxGeometry y="240" width="180" height="30" as="geometry" />
        </mxCell>
        <mxCell id="9h0e1bbw9ytNqN5iiVFv-71" value="" style="shape=partialRectangle;connectable=0;fillColor=none;top=0;left=0;bottom=0;right=0;editable=1;overflow=hidden;" vertex="1" parent="9h0e1bbw9ytNqN5iiVFv-70">
          <mxGeometry width="30" height="30" as="geometry" />
        </mxCell>
        <mxCell id="9h0e1bbw9ytNqN5iiVFv-72" value="no_hp" style="shape=partialRectangle;connectable=0;fillColor=none;top=0;left=0;bottom=0;right=0;align=left;spacingLeft=6;overflow=hidden;" vertex="1" parent="9h0e1bbw9ytNqN5iiVFv-70">
          <mxGeometry x="30" width="150" height="30" as="geometry" />
        </mxCell>
        <mxCell id="9h0e1bbw9ytNqN5iiVFv-19" value="Tugas" style="shape=table;startSize=30;container=1;collapsible=1;childLayout=tableLayout;fixedRows=1;rowLines=0;fontStyle=1;align=center;resizeLast=1;" vertex="1" parent="1">
          <mxGeometry y="170" width="180" height="160" as="geometry" />
        </mxCell>
        <mxCell id="9h0e1bbw9ytNqN5iiVFv-20" value="" style="shape=partialRectangle;collapsible=0;dropTarget=0;pointerEvents=0;fillColor=none;top=0;left=0;bottom=1;right=0;points=[[0,0.5],[1,0.5]];portConstraint=eastwest;" vertex="1" parent="9h0e1bbw9ytNqN5iiVFv-19">
          <mxGeometry y="30" width="180" height="30" as="geometry" />
        </mxCell>
        <mxCell id="9h0e1bbw9ytNqN5iiVFv-21" value="PK" style="shape=partialRectangle;connectable=0;fillColor=none;top=0;left=0;bottom=0;right=0;fontStyle=1;overflow=hidden;" vertex="1" parent="9h0e1bbw9ytNqN5iiVFv-20">
          <mxGeometry width="30" height="30" as="geometry" />
        </mxCell>
        <mxCell id="9h0e1bbw9ytNqN5iiVFv-22" value="id_tugas" style="shape=partialRectangle;connectable=0;fillColor=none;top=0;left=0;bottom=0;right=0;align=left;spacingLeft=6;fontStyle=5;overflow=hidden;" vertex="1" parent="9h0e1bbw9ytNqN5iiVFv-20">
          <mxGeometry x="30" width="150" height="30" as="geometry" />
        </mxCell>
        <mxCell id="9h0e1bbw9ytNqN5iiVFv-23" value="" style="shape=partialRectangle;collapsible=0;dropTarget=0;pointerEvents=0;fillColor=none;top=0;left=0;bottom=0;right=0;points=[[0,0.5],[1,0.5]];portConstraint=eastwest;" vertex="1" parent="9h0e1bbw9ytNqN5iiVFv-19">
          <mxGeometry y="60" width="180" height="30" as="geometry" />
        </mxCell>
        <mxCell id="9h0e1bbw9ytNqN5iiVFv-24" value="FK" style="shape=partialRectangle;connectable=0;fillColor=none;top=0;left=0;bottom=0;right=0;editable=1;overflow=hidden;" vertex="1" parent="9h0e1bbw9ytNqN5iiVFv-23">
          <mxGeometry width="30" height="30" as="geometry" />
        </mxCell>
        <mxCell id="9h0e1bbw9ytNqN5iiVFv-25" value="id_user" style="shape=partialRectangle;connectable=0;fillColor=none;top=0;left=0;bottom=0;right=0;align=left;spacingLeft=6;overflow=hidden;" vertex="1" parent="9h0e1bbw9ytNqN5iiVFv-23">
          <mxGeometry x="30" width="150" height="30" as="geometry" />
        </mxCell>
        <mxCell id="9h0e1bbw9ytNqN5iiVFv-26" value="" style="shape=partialRectangle;collapsible=0;dropTarget=0;pointerEvents=0;fillColor=none;top=0;left=0;bottom=0;right=0;points=[[0,0.5],[1,0.5]];portConstraint=eastwest;" vertex="1" parent="9h0e1bbw9ytNqN5iiVFv-19">
          <mxGeometry y="90" width="180" height="30" as="geometry" />
        </mxCell>
        <mxCell id="9h0e1bbw9ytNqN5iiVFv-27" value="" style="shape=partialRectangle;connectable=0;fillColor=none;top=0;left=0;bottom=0;right=0;editable=1;overflow=hidden;" vertex="1" parent="9h0e1bbw9ytNqN5iiVFv-26">
          <mxGeometry width="30" height="30" as="geometry" />
        </mxCell>
        <mxCell id="9h0e1bbw9ytNqN5iiVFv-28" value="id_mapel" style="shape=partialRectangle;connectable=0;fillColor=none;top=0;left=0;bottom=0;right=0;align=left;spacingLeft=6;overflow=hidden;" vertex="1" parent="9h0e1bbw9ytNqN5iiVFv-26">
          <mxGeometry x="30" width="150" height="30" as="geometry" />
        </mxCell>
        <mxCell id="9h0e1bbw9ytNqN5iiVFv-29" value="" style="shape=partialRectangle;collapsible=0;dropTarget=0;pointerEvents=0;fillColor=none;top=0;left=0;bottom=0;right=0;points=[[0,0.5],[1,0.5]];portConstraint=eastwest;" vertex="1" parent="9h0e1bbw9ytNqN5iiVFv-19">
          <mxGeometry y="120" width="180" height="30" as="geometry" />
        </mxCell>
        <mxCell id="9h0e1bbw9ytNqN5iiVFv-30" value="" style="shape=partialRectangle;connectable=0;fillColor=none;top=0;left=0;bottom=0;right=0;editable=1;overflow=hidden;" vertex="1" parent="9h0e1bbw9ytNqN5iiVFv-29">
          <mxGeometry width="30" height="30" as="geometry" />
        </mxCell>
        <mxCell id="9h0e1bbw9ytNqN5iiVFv-31" value="desc" style="shape=partialRectangle;connectable=0;fillColor=none;top=0;left=0;bottom=0;right=0;align=left;spacingLeft=6;overflow=hidden;" vertex="1" parent="9h0e1bbw9ytNqN5iiVFv-29">
          <mxGeometry x="30" width="150" height="30" as="geometry" />
        </mxCell>
        <mxCell id="9h0e1bbw9ytNqN5iiVFv-74" value="Rapot" style="shape=table;startSize=30;container=1;collapsible=1;childLayout=tableLayout;fixedRows=1;rowLines=0;fontStyle=1;align=center;resizeLast=1;" vertex="1" parent="1">
          <mxGeometry x="660" y="-120" width="180" height="200" as="geometry" />
        </mxCell>
        <mxCell id="9h0e1bbw9ytNqN5iiVFv-75" value="" style="shape=partialRectangle;collapsible=0;dropTarget=0;pointerEvents=0;fillColor=none;top=0;left=0;bottom=1;right=0;points=[[0,0.5],[1,0.5]];portConstraint=eastwest;" vertex="1" parent="9h0e1bbw9ytNqN5iiVFv-74">
          <mxGeometry y="30" width="180" height="30" as="geometry" />
        </mxCell>
        <mxCell id="9h0e1bbw9ytNqN5iiVFv-76" value="PK" style="shape=partialRectangle;connectable=0;fillColor=none;top=0;left=0;bottom=0;right=0;fontStyle=1;overflow=hidden;" vertex="1" parent="9h0e1bbw9ytNqN5iiVFv-75">
          <mxGeometry width="30" height="30" as="geometry" />
        </mxCell>
        <mxCell id="9h0e1bbw9ytNqN5iiVFv-77" value="id_rapot" style="shape=partialRectangle;connectable=0;fillColor=none;top=0;left=0;bottom=0;right=0;align=left;spacingLeft=6;fontStyle=5;overflow=hidden;" vertex="1" parent="9h0e1bbw9ytNqN5iiVFv-75">
          <mxGeometry x="30" width="150" height="30" as="geometry" />
        </mxCell>
        <mxCell id="9h0e1bbw9ytNqN5iiVFv-78" value="" style="shape=partialRectangle;collapsible=0;dropTarget=0;pointerEvents=0;fillColor=none;top=0;left=0;bottom=0;right=0;points=[[0,0.5],[1,0.5]];portConstraint=eastwest;" vertex="1" parent="9h0e1bbw9ytNqN5iiVFv-74">
          <mxGeometry y="60" width="180" height="30" as="geometry" />
        </mxCell>
        <mxCell id="9h0e1bbw9ytNqN5iiVFv-79" value="" style="shape=partialRectangle;connectable=0;fillColor=none;top=0;left=0;bottom=0;right=0;editable=1;overflow=hidden;" vertex="1" parent="9h0e1bbw9ytNqN5iiVFv-78">
          <mxGeometry width="30" height="30" as="geometry" />
        </mxCell>
        <mxCell id="9h0e1bbw9ytNqN5iiVFv-80" value="" style="shape=partialRectangle;connectable=0;fillColor=none;top=0;left=0;bottom=0;right=0;align=left;spacingLeft=6;overflow=hidden;" vertex="1" parent="9h0e1bbw9ytNqN5iiVFv-78">
          <mxGeometry x="30" width="150" height="30" as="geometry" />
        </mxCell>
        <mxCell id="9h0e1bbw9ytNqN5iiVFv-81" value="" style="shape=partialRectangle;collapsible=0;dropTarget=0;pointerEvents=0;fillColor=none;top=0;left=0;bottom=0;right=0;points=[[0,0.5],[1,0.5]];portConstraint=eastwest;" vertex="1" parent="9h0e1bbw9ytNqN5iiVFv-74">
          <mxGeometry y="90" width="180" height="30" as="geometry" />
        </mxCell>
        <mxCell id="9h0e1bbw9ytNqN5iiVFv-82" value="FK" style="shape=partialRectangle;connectable=0;fillColor=none;top=0;left=0;bottom=0;right=0;editable=1;overflow=hidden;" vertex="1" parent="9h0e1bbw9ytNqN5iiVFv-81">
          <mxGeometry width="30" height="30" as="geometry" />
        </mxCell>
        <mxCell id="9h0e1bbw9ytNqN5iiVFv-83" value="id_mapel" style="shape=partialRectangle;connectable=0;fillColor=none;top=0;left=0;bottom=0;right=0;align=left;spacingLeft=6;overflow=hidden;" vertex="1" parent="9h0e1bbw9ytNqN5iiVFv-81">
          <mxGeometry x="30" width="150" height="30" as="geometry" />
        </mxCell>
        <mxCell id="9h0e1bbw9ytNqN5iiVFv-84" value="" style="shape=partialRectangle;collapsible=0;dropTarget=0;pointerEvents=0;fillColor=none;top=0;left=0;bottom=0;right=0;points=[[0,0.5],[1,0.5]];portConstraint=eastwest;" vertex="1" parent="9h0e1bbw9ytNqN5iiVFv-74">
          <mxGeometry y="120" width="180" height="30" as="geometry" />
        </mxCell>
        <mxCell id="9h0e1bbw9ytNqN5iiVFv-85" value="FK" style="shape=partialRectangle;connectable=0;fillColor=none;top=0;left=0;bottom=0;right=0;editable=1;overflow=hidden;" vertex="1" parent="9h0e1bbw9ytNqN5iiVFv-84">
          <mxGeometry width="30" height="30" as="geometry" />
        </mxCell>
        <mxCell id="9h0e1bbw9ytNqN5iiVFv-86" value="id_user" style="shape=partialRectangle;connectable=0;fillColor=none;top=0;left=0;bottom=0;right=0;align=left;spacingLeft=6;overflow=hidden;" vertex="1" parent="9h0e1bbw9ytNqN5iiVFv-84">
          <mxGeometry x="30" width="150" height="30" as="geometry" />
        </mxCell>
        <mxCell id="9h0e1bbw9ytNqN5iiVFv-87" value="" style="shape=partialRectangle;collapsible=0;dropTarget=0;pointerEvents=0;fillColor=none;top=0;left=0;bottom=0;right=0;points=[[0,0.5],[1,0.5]];portConstraint=eastwest;" vertex="1" parent="9h0e1bbw9ytNqN5iiVFv-74">
          <mxGeometry y="150" width="180" height="30" as="geometry" />
        </mxCell>
        <mxCell id="9h0e1bbw9ytNqN5iiVFv-88" value="" style="shape=partialRectangle;connectable=0;fillColor=none;top=0;left=0;bottom=0;right=0;editable=1;overflow=hidden;" vertex="1" parent="9h0e1bbw9ytNqN5iiVFv-87">
          <mxGeometry width="30" height="30" as="geometry" />
        </mxCell>
        <mxCell id="9h0e1bbw9ytNqN5iiVFv-89" value="id_absen" style="shape=partialRectangle;connectable=0;fillColor=none;top=0;left=0;bottom=0;right=0;align=left;spacingLeft=6;overflow=hidden;" vertex="1" parent="9h0e1bbw9ytNqN5iiVFv-87">
          <mxGeometry x="30" width="150" height="30" as="geometry" />
        </mxCell>
        <mxCell id="9h0e1bbw9ytNqN5iiVFv-90" value="Mapel" style="shape=table;startSize=30;container=1;collapsible=1;childLayout=tableLayout;fixedRows=1;rowLines=0;fontStyle=1;align=center;resizeLast=1;" vertex="1" parent="1">
          <mxGeometry x="-30" y="450" width="180" height="150" as="geometry" />
        </mxCell>
        <mxCell id="9h0e1bbw9ytNqN5iiVFv-91" value="" style="shape=partialRectangle;collapsible=0;dropTarget=0;pointerEvents=0;fillColor=none;top=0;left=0;bottom=1;right=0;points=[[0,0.5],[1,0.5]];portConstraint=eastwest;" vertex="1" parent="9h0e1bbw9ytNqN5iiVFv-90">
          <mxGeometry y="30" width="180" height="30" as="geometry" />
        </mxCell>
        <mxCell id="9h0e1bbw9ytNqN5iiVFv-92" value="PK" style="shape=partialRectangle;connectable=0;fillColor=none;top=0;left=0;bottom=0;right=0;fontStyle=1;overflow=hidden;" vertex="1" parent="9h0e1bbw9ytNqN5iiVFv-91">
          <mxGeometry width="30" height="30" as="geometry" />
        </mxCell>
        <mxCell id="9h0e1bbw9ytNqN5iiVFv-93" value="id_mapel" style="shape=partialRectangle;connectable=0;fillColor=none;top=0;left=0;bottom=0;right=0;align=left;spacingLeft=6;fontStyle=5;overflow=hidden;" vertex="1" parent="9h0e1bbw9ytNqN5iiVFv-91">
          <mxGeometry x="30" width="150" height="30" as="geometry" />
        </mxCell>
        <mxCell id="9h0e1bbw9ytNqN5iiVFv-94" value="" style="shape=partialRectangle;collapsible=0;dropTarget=0;pointerEvents=0;fillColor=none;top=0;left=0;bottom=0;right=0;points=[[0,0.5],[1,0.5]];portConstraint=eastwest;" vertex="1" parent="9h0e1bbw9ytNqN5iiVFv-90">
          <mxGeometry y="60" width="180" height="30" as="geometry" />
        </mxCell>
        <mxCell id="9h0e1bbw9ytNqN5iiVFv-95" value="" style="shape=partialRectangle;connectable=0;fillColor=none;top=0;left=0;bottom=0;right=0;editable=1;overflow=hidden;" vertex="1" parent="9h0e1bbw9ytNqN5iiVFv-94">
          <mxGeometry width="30" height="30" as="geometry" />
        </mxCell>
        <mxCell id="9h0e1bbw9ytNqN5iiVFv-96" value="nama_mapel" style="shape=partialRectangle;connectable=0;fillColor=none;top=0;left=0;bottom=0;right=0;align=left;spacingLeft=6;overflow=hidden;" vertex="1" parent="9h0e1bbw9ytNqN5iiVFv-94">
          <mxGeometry x="30" width="150" height="30" as="geometry" />
        </mxCell>
        <mxCell id="9h0e1bbw9ytNqN5iiVFv-97" value="" style="shape=partialRectangle;collapsible=0;dropTarget=0;pointerEvents=0;fillColor=none;top=0;left=0;bottom=0;right=0;points=[[0,0.5],[1,0.5]];portConstraint=eastwest;" vertex="1" parent="9h0e1bbw9ytNqN5iiVFv-90">
          <mxGeometry y="90" width="180" height="30" as="geometry" />
        </mxCell>
        <mxCell id="9h0e1bbw9ytNqN5iiVFv-98" value="FK" style="shape=partialRectangle;connectable=0;fillColor=none;top=0;left=0;bottom=0;right=0;editable=1;overflow=hidden;" vertex="1" parent="9h0e1bbw9ytNqN5iiVFv-97">
          <mxGeometry width="30" height="30" as="geometry" />
        </mxCell>
        <mxCell id="9h0e1bbw9ytNqN5iiVFv-99" value="id_user" style="shape=partialRectangle;connectable=0;fillColor=none;top=0;left=0;bottom=0;right=0;align=left;spacingLeft=6;overflow=hidden;" vertex="1" parent="9h0e1bbw9ytNqN5iiVFv-97">
          <mxGeometry x="30" width="150" height="30" as="geometry" />
        </mxCell>
        <mxCell id="9h0e1bbw9ytNqN5iiVFv-100" value="" style="shape=partialRectangle;collapsible=0;dropTarget=0;pointerEvents=0;fillColor=none;top=0;left=0;bottom=0;right=0;points=[[0,0.5],[1,0.5]];portConstraint=eastwest;" vertex="1" parent="9h0e1bbw9ytNqN5iiVFv-90">
          <mxGeometry y="120" width="180" height="30" as="geometry" />
        </mxCell>
        <mxCell id="9h0e1bbw9ytNqN5iiVFv-101" value="" style="shape=partialRectangle;connectable=0;fillColor=none;top=0;left=0;bottom=0;right=0;editable=1;overflow=hidden;" vertex="1" parent="9h0e1bbw9ytNqN5iiVFv-100">
          <mxGeometry width="30" height="30" as="geometry" />
        </mxCell>
        <mxCell id="9h0e1bbw9ytNqN5iiVFv-102" value="" style="shape=partialRectangle;connectable=0;fillColor=none;top=0;left=0;bottom=0;right=0;align=left;spacingLeft=6;overflow=hidden;" vertex="1" parent="9h0e1bbw9ytNqN5iiVFv-100">
          <mxGeometry x="30" width="150" height="30" as="geometry" />
        </mxCell>
        <mxCell id="9h0e1bbw9ytNqN5iiVFv-103" value="Absen" style="shape=table;startSize=30;container=1;collapsible=1;childLayout=tableLayout;fixedRows=1;rowLines=0;fontStyle=1;align=center;resizeLast=1;" vertex="1" parent="1">
          <mxGeometry x="670" y="170" width="180" height="160" as="geometry" />
        </mxCell>
        <mxCell id="9h0e1bbw9ytNqN5iiVFv-104" value="" style="shape=partialRectangle;collapsible=0;dropTarget=0;pointerEvents=0;fillColor=none;top=0;left=0;bottom=1;right=0;points=[[0,0.5],[1,0.5]];portConstraint=eastwest;" vertex="1" parent="9h0e1bbw9ytNqN5iiVFv-103">
          <mxGeometry y="30" width="180" height="30" as="geometry" />
        </mxCell>
        <mxCell id="9h0e1bbw9ytNqN5iiVFv-105" value="PK" style="shape=partialRectangle;connectable=0;fillColor=none;top=0;left=0;bottom=0;right=0;fontStyle=1;overflow=hidden;" vertex="1" parent="9h0e1bbw9ytNqN5iiVFv-104">
          <mxGeometry width="30" height="30" as="geometry" />
        </mxCell>
        <mxCell id="9h0e1bbw9ytNqN5iiVFv-106" value="id_absen" style="shape=partialRectangle;connectable=0;fillColor=none;top=0;left=0;bottom=0;right=0;align=left;spacingLeft=6;fontStyle=5;overflow=hidden;" vertex="1" parent="9h0e1bbw9ytNqN5iiVFv-104">
          <mxGeometry x="30" width="150" height="30" as="geometry" />
        </mxCell>
        <mxCell id="9h0e1bbw9ytNqN5iiVFv-107" value="" style="shape=partialRectangle;collapsible=0;dropTarget=0;pointerEvents=0;fillColor=none;top=0;left=0;bottom=0;right=0;points=[[0,0.5],[1,0.5]];portConstraint=eastwest;" vertex="1" parent="9h0e1bbw9ytNqN5iiVFv-103">
          <mxGeometry y="60" width="180" height="30" as="geometry" />
        </mxCell>
        <mxCell id="9h0e1bbw9ytNqN5iiVFv-108" value="" style="shape=partialRectangle;connectable=0;fillColor=none;top=0;left=0;bottom=0;right=0;editable=1;overflow=hidden;" vertex="1" parent="9h0e1bbw9ytNqN5iiVFv-107">
          <mxGeometry width="30" height="30" as="geometry" />
        </mxCell>
        <mxCell id="9h0e1bbw9ytNqN5iiVFv-109" value="tgl" style="shape=partialRectangle;connectable=0;fillColor=none;top=0;left=0;bottom=0;right=0;align=left;spacingLeft=6;overflow=hidden;" vertex="1" parent="9h0e1bbw9ytNqN5iiVFv-107">
          <mxGeometry x="30" width="150" height="30" as="geometry" />
        </mxCell>
        <mxCell id="9h0e1bbw9ytNqN5iiVFv-110" value="" style="shape=partialRectangle;collapsible=0;dropTarget=0;pointerEvents=0;fillColor=none;top=0;left=0;bottom=0;right=0;points=[[0,0.5],[1,0.5]];portConstraint=eastwest;" vertex="1" parent="9h0e1bbw9ytNqN5iiVFv-103">
          <mxGeometry y="90" width="180" height="30" as="geometry" />
        </mxCell>
        <mxCell id="9h0e1bbw9ytNqN5iiVFv-111" value="" style="shape=partialRectangle;connectable=0;fillColor=none;top=0;left=0;bottom=0;right=0;editable=1;overflow=hidden;" vertex="1" parent="9h0e1bbw9ytNqN5iiVFv-110">
          <mxGeometry width="30" height="30" as="geometry" />
        </mxCell>
        <mxCell id="9h0e1bbw9ytNqN5iiVFv-112" value="keterangan" style="shape=partialRectangle;connectable=0;fillColor=none;top=0;left=0;bottom=0;right=0;align=left;spacingLeft=6;overflow=hidden;" vertex="1" parent="9h0e1bbw9ytNqN5iiVFv-110">
          <mxGeometry x="30" width="150" height="30" as="geometry" />
        </mxCell>
        <mxCell id="9h0e1bbw9ytNqN5iiVFv-113" value="" style="shape=partialRectangle;collapsible=0;dropTarget=0;pointerEvents=0;fillColor=none;top=0;left=0;bottom=0;right=0;points=[[0,0.5],[1,0.5]];portConstraint=eastwest;" vertex="1" parent="9h0e1bbw9ytNqN5iiVFv-103">
          <mxGeometry y="120" width="180" height="30" as="geometry" />
        </mxCell>
        <mxCell id="9h0e1bbw9ytNqN5iiVFv-114" value="FK" style="shape=partialRectangle;connectable=0;fillColor=none;top=0;left=0;bottom=0;right=0;editable=1;overflow=hidden;" vertex="1" parent="9h0e1bbw9ytNqN5iiVFv-113">
          <mxGeometry width="30" height="30" as="geometry" />
        </mxCell>
        <mxCell id="9h0e1bbw9ytNqN5iiVFv-115" value="id_user" style="shape=partialRectangle;connectable=0;fillColor=none;top=0;left=0;bottom=0;right=0;align=left;spacingLeft=6;overflow=hidden;" vertex="1" parent="9h0e1bbw9ytNqN5iiVFv-113">
          <mxGeometry x="30" width="150" height="30" as="geometry" />
        </mxCell>
        <mxCell id="9h0e1bbw9ytNqN5iiVFv-116" value="Role" style="shape=table;startSize=30;container=1;collapsible=1;childLayout=tableLayout;fixedRows=1;rowLines=0;fontStyle=1;align=center;resizeLast=1;" vertex="1" parent="1">
          <mxGeometry x="650" y="420" width="180" height="150" as="geometry" />
        </mxCell>
        <mxCell id="9h0e1bbw9ytNqN5iiVFv-117" value="" style="shape=partialRectangle;collapsible=0;dropTarget=0;pointerEvents=0;fillColor=none;top=0;left=0;bottom=1;right=0;points=[[0,0.5],[1,0.5]];portConstraint=eastwest;" vertex="1" parent="9h0e1bbw9ytNqN5iiVFv-116">
          <mxGeometry y="30" width="180" height="30" as="geometry" />
        </mxCell>
        <mxCell id="9h0e1bbw9ytNqN5iiVFv-118" value="PK" style="shape=partialRectangle;connectable=0;fillColor=none;top=0;left=0;bottom=0;right=0;fontStyle=1;overflow=hidden;" vertex="1" parent="9h0e1bbw9ytNqN5iiVFv-117">
          <mxGeometry width="30" height="30" as="geometry" />
        </mxCell>
        <mxCell id="9h0e1bbw9ytNqN5iiVFv-119" value="id_role" style="shape=partialRectangle;connectable=0;fillColor=none;top=0;left=0;bottom=0;right=0;align=left;spacingLeft=6;fontStyle=5;overflow=hidden;" vertex="1" parent="9h0e1bbw9ytNqN5iiVFv-117">
          <mxGeometry x="30" width="150" height="30" as="geometry" />
        </mxCell>
        <mxCell id="9h0e1bbw9ytNqN5iiVFv-120" value="" style="shape=partialRectangle;collapsible=0;dropTarget=0;pointerEvents=0;fillColor=none;top=0;left=0;bottom=0;right=0;points=[[0,0.5],[1,0.5]];portConstraint=eastwest;" vertex="1" parent="9h0e1bbw9ytNqN5iiVFv-116">
          <mxGeometry y="60" width="180" height="30" as="geometry" />
        </mxCell>
        <mxCell id="9h0e1bbw9ytNqN5iiVFv-121" value="" style="shape=partialRectangle;connectable=0;fillColor=none;top=0;left=0;bottom=0;right=0;editable=1;overflow=hidden;" vertex="1" parent="9h0e1bbw9ytNqN5iiVFv-120">
          <mxGeometry width="30" height="30" as="geometry" />
        </mxCell>
        <mxCell id="9h0e1bbw9ytNqN5iiVFv-122" value="type" style="shape=partialRectangle;connectable=0;fillColor=none;top=0;left=0;bottom=0;right=0;align=left;spacingLeft=6;overflow=hidden;" vertex="1" parent="9h0e1bbw9ytNqN5iiVFv-120">
          <mxGeometry x="30" width="150" height="30" as="geometry" />
        </mxCell>
        <mxCell id="9h0e1bbw9ytNqN5iiVFv-123" value="" style="shape=partialRectangle;collapsible=0;dropTarget=0;pointerEvents=0;fillColor=none;top=0;left=0;bottom=0;right=0;points=[[0,0.5],[1,0.5]];portConstraint=eastwest;" vertex="1" parent="9h0e1bbw9ytNqN5iiVFv-116">
          <mxGeometry y="90" width="180" height="30" as="geometry" />
        </mxCell>
        <mxCell id="9h0e1bbw9ytNqN5iiVFv-124" value="" style="shape=partialRectangle;connectable=0;fillColor=none;top=0;left=0;bottom=0;right=0;editable=1;overflow=hidden;" vertex="1" parent="9h0e1bbw9ytNqN5iiVFv-123">
          <mxGeometry width="30" height="30" as="geometry" />
        </mxCell>
        <mxCell id="9h0e1bbw9ytNqN5iiVFv-125" value="" style="shape=partialRectangle;connectable=0;fillColor=none;top=0;left=0;bottom=0;right=0;align=left;spacingLeft=6;overflow=hidden;" vertex="1" parent="9h0e1bbw9ytNqN5iiVFv-123">
          <mxGeometry x="30" width="150" height="30" as="geometry" />
        </mxCell>
        <mxCell id="9h0e1bbw9ytNqN5iiVFv-126" value="" style="shape=partialRectangle;collapsible=0;dropTarget=0;pointerEvents=0;fillColor=none;top=0;left=0;bottom=0;right=0;points=[[0,0.5],[1,0.5]];portConstraint=eastwest;" vertex="1" parent="9h0e1bbw9ytNqN5iiVFv-116">
          <mxGeometry y="120" width="180" height="30" as="geometry" />
        </mxCell>
        <mxCell id="9h0e1bbw9ytNqN5iiVFv-127" value="" style="shape=partialRectangle;connectable=0;fillColor=none;top=0;left=0;bottom=0;right=0;editable=1;overflow=hidden;" vertex="1" parent="9h0e1bbw9ytNqN5iiVFv-126">
          <mxGeometry width="30" height="30" as="geometry" />
        </mxCell>
        <mxCell id="9h0e1bbw9ytNqN5iiVFv-128" value="" style="shape=partialRectangle;connectable=0;fillColor=none;top=0;left=0;bottom=0;right=0;align=left;spacingLeft=6;overflow=hidden;" vertex="1" parent="9h0e1bbw9ytNqN5iiVFv-126">
          <mxGeometry x="30" width="150" height="30" as="geometry" />
        </mxCell>
        <mxCell id="9h0e1bbw9ytNqN5iiVFv-132" style="edgeStyle=orthogonalEdgeStyle;rounded=0;orthogonalLoop=1;jettySize=auto;html=1;exitX=0;exitY=0.5;exitDx=0;exitDy=0;entryX=1;entryY=0.5;entryDx=0;entryDy=0;" edge="1" parent="1" source="9h0e1bbw9ytNqN5iiVFv-3" target="9h0e1bbw9ytNqN5iiVFv-23">
          <mxGeometry relative="1" as="geometry" />
        </mxCell>
        <mxCell id="9h0e1bbw9ytNqN5iiVFv-133" style="edgeStyle=orthogonalEdgeStyle;rounded=0;orthogonalLoop=1;jettySize=auto;html=1;exitX=1;exitY=0.5;exitDx=0;exitDy=0;entryX=0;entryY=0.5;entryDx=0;entryDy=0;" edge="1" parent="1" source="9h0e1bbw9ytNqN5iiVFv-3" target="9h0e1bbw9ytNqN5iiVFv-84">
          <mxGeometry relative="1" as="geometry" />
        </mxCell>
        <mxCell id="9h0e1bbw9ytNqN5iiVFv-134" style="edgeStyle=orthogonalEdgeStyle;rounded=0;orthogonalLoop=1;jettySize=auto;html=1;exitX=0;exitY=0.5;exitDx=0;exitDy=0;entryX=1;entryY=0.5;entryDx=0;entryDy=0;" edge="1" parent="1" source="9h0e1bbw9ytNqN5iiVFv-3" target="9h0e1bbw9ytNqN5iiVFv-97">
          <mxGeometry relative="1" as="geometry" />
        </mxCell>
        <mxCell id="9h0e1bbw9ytNqN5iiVFv-137" style="edgeStyle=orthogonalEdgeStyle;rounded=0;orthogonalLoop=1;jettySize=auto;html=1;exitX=0;exitY=0.5;exitDx=0;exitDy=0;entryX=1;entryY=0.5;entryDx=0;entryDy=0;" edge="1" parent="1" source="9h0e1bbw9ytNqN5iiVFv-117" target="9h0e1bbw9ytNqN5iiVFv-45">
          <mxGeometry relative="1" as="geometry" />
        </mxCell>
        <mxCell id="9h0e1bbw9ytNqN5iiVFv-138" style="edgeStyle=orthogonalEdgeStyle;rounded=0;orthogonalLoop=1;jettySize=auto;html=1;exitX=1;exitY=0.5;exitDx=0;exitDy=0;entryX=0;entryY=0.5;entryDx=0;entryDy=0;" edge="1" parent="1" source="9h0e1bbw9ytNqN5iiVFv-3" target="9h0e1bbw9ytNqN5iiVFv-113">
          <mxGeometry relative="1" as="geometry" />
        </mxCell>
        <mxCell id="9h0e1bbw9ytNqN5iiVFv-139" value="1" style="text;html=1;strokeColor=none;fillColor=none;align=center;verticalAlign=middle;whiteSpace=wrap;rounded=0;" vertex="1" parent="1">
          <mxGeometry x="230" y="140" width="80" height="30" as="geometry" />
        </mxCell>
        <mxCell id="9h0e1bbw9ytNqN5iiVFv-140" style="edgeStyle=orthogonalEdgeStyle;rounded=0;orthogonalLoop=1;jettySize=auto;html=1;exitX=0;exitY=0.5;exitDx=0;exitDy=0;entryX=0;entryY=0.5;entryDx=0;entryDy=0;" edge="1" parent="1" source="9h0e1bbw9ytNqN5iiVFv-91" target="9h0e1bbw9ytNqN5iiVFv-26">
          <mxGeometry relative="1" as="geometry" />
        </mxCell>
        <mxCell id="9h0e1bbw9ytNqN5iiVFv-141" style="edgeStyle=orthogonalEdgeStyle;rounded=0;orthogonalLoop=1;jettySize=auto;html=1;exitX=1;exitY=0.5;exitDx=0;exitDy=0;entryX=1;entryY=0.5;entryDx=0;entryDy=0;" edge="1" parent="1" source="9h0e1bbw9ytNqN5iiVFv-104" target="9h0e1bbw9ytNqN5iiVFv-87">
          <mxGeometry relative="1" as="geometry">
            <Array as="points">
              <mxPoint x="890" y="215" />
              <mxPoint x="890" y="45" />
            </Array>
          </mxGeometry>
        </mxCell>
        <mxCell id="9h0e1bbw9ytNqN5iiVFv-142" style="edgeStyle=orthogonalEdgeStyle;rounded=0;orthogonalLoop=1;jettySize=auto;html=1;exitX=0;exitY=0.5;exitDx=0;exitDy=0;entryX=0;entryY=0.5;entryDx=0;entryDy=0;" edge="1" parent="1" source="9h0e1bbw9ytNqN5iiVFv-91" target="9h0e1bbw9ytNqN5iiVFv-81">
          <mxGeometry relative="1" as="geometry">
            <Array as="points">
              <mxPoint x="-120" y="495" />
              <mxPoint x="-120" y="-15" />
            </Array>
          </mxGeometry>
        </mxCell>
        <mxCell id="9h0e1bbw9ytNqN5iiVFv-143" value="&lt;span style=&quot;color: rgb(0 , 0 , 0) ; font-family: &amp;#34;helvetica&amp;#34; ; font-size: 12px ; font-style: normal ; font-weight: 400 ; letter-spacing: normal ; text-align: center ; text-indent: 0px ; text-transform: none ; word-spacing: 0px ; background-color: rgb(248 , 249 , 250) ; display: inline ; float: none&quot;&gt;M&lt;/span&gt;" style="text;whiteSpace=wrap;html=1;" vertex="1" parent="1">
          <mxGeometry x="180" y="500" width="30" height="30" as="geometry" />
        </mxCell>
        <mxCell id="9h0e1bbw9ytNqN5iiVFv-144" value="M" style="text;html=1;strokeColor=none;fillColor=none;align=center;verticalAlign=middle;whiteSpace=wrap;rounded=0;" vertex="1" parent="1">
          <mxGeometry x="170" y="210" width="80" height="30" as="geometry" />
        </mxCell>
        <mxCell id="9h0e1bbw9ytNqN5iiVFv-145" value="1" style="text;html=1;strokeColor=none;fillColor=none;align=center;verticalAlign=middle;whiteSpace=wrap;rounded=0;" vertex="1" parent="1">
          <mxGeometry x="510" y="130" width="80" height="30" as="geometry" />
        </mxCell>
        <mxCell id="9h0e1bbw9ytNqN5iiVFv-146" value="1" style="text;html=1;strokeColor=none;fillColor=none;align=center;verticalAlign=middle;whiteSpace=wrap;rounded=0;" vertex="1" parent="1">
          <mxGeometry x="590" y="270" width="80" height="30" as="geometry" />
        </mxCell>
        <mxCell id="9h0e1bbw9ytNqN5iiVFv-147" value="1" style="text;html=1;strokeColor=none;fillColor=none;align=center;verticalAlign=middle;whiteSpace=wrap;rounded=0;" vertex="1" parent="1">
          <mxGeometry x="510" y="270" width="80" height="30" as="geometry" />
        </mxCell>
        <mxCell id="9h0e1bbw9ytNqN5iiVFv-148" value="1" style="text;html=1;strokeColor=none;fillColor=none;align=center;verticalAlign=middle;whiteSpace=wrap;rounded=0;" vertex="1" parent="1">
          <mxGeometry x="570" y="430" width="80" height="30" as="geometry" />
        </mxCell>
        <mxCell id="9h0e1bbw9ytNqN5iiVFv-149" value="1" style="text;html=1;strokeColor=none;fillColor=none;align=center;verticalAlign=middle;whiteSpace=wrap;rounded=0;" vertex="1" parent="1">
          <mxGeometry x="580" y="-10" width="80" height="30" as="geometry" />
        </mxCell>
        <mxCell id="9h0e1bbw9ytNqN5iiVFv-150" value="1" style="text;html=1;strokeColor=none;fillColor=none;align=center;verticalAlign=middle;whiteSpace=wrap;rounded=0;" vertex="1" parent="1">
          <mxGeometry x="-130" y="460" width="80" height="30" as="geometry" />
        </mxCell>
        <mxCell id="9h0e1bbw9ytNqN5iiVFv-151" value="M" style="text;html=1;strokeColor=none;fillColor=none;align=center;verticalAlign=middle;whiteSpace=wrap;rounded=0;" vertex="1" parent="1">
          <mxGeometry x="580" y="-50" width="80" height="30" as="geometry" />
        </mxCell>
        <mxCell id="9h0e1bbw9ytNqN5iiVFv-152" value="M" style="text;html=1;strokeColor=none;fillColor=none;align=center;verticalAlign=middle;whiteSpace=wrap;rounded=0;" vertex="1" parent="1">
          <mxGeometry x="-70" y="240" width="80" height="30" as="geometry" />
        </mxCell>
        <mxCell id="9h0e1bbw9ytNqN5iiVFv-153" value="1" style="text;html=1;strokeColor=none;fillColor=none;align=center;verticalAlign=middle;whiteSpace=wrap;rounded=0;" vertex="1" parent="1">
          <mxGeometry x="830" y="180" width="80" height="30" as="geometry" />
        </mxCell>
        <mxCell id="9h0e1bbw9ytNqN5iiVFv-154" value="1" style="text;html=1;strokeColor=none;fillColor=none;align=center;verticalAlign=middle;whiteSpace=wrap;rounded=0;" vertex="1" parent="1">
          <mxGeometry x="820" y="10" width="80" height="30" as="geometry" />
        </mxCell>
      </root>
    </mxGraphModel>
  </diagram>
</mxfile>
